<svg width="24" height="24" viewBox="0 0 24 24" fill="none" xmlns="http://www.w3.org/2000/svg">
<path d="M16.9767 19.5C19.4017 17.8876 21 15.1305 21 12C21 7.02944 16.9706 3 12 3C11.3126 3 10.6432 3.07706 10 3.22302M16.9767 19.5V16M16.9767 19.5H20.5M7 4.51555C4.58803 6.13007 3 8.87958 3 12C3 16.9706 7.02944 21 12 21C12.6874 21 13.3568 20.9229 14 20.777M7 4.51555V8M7 4.51555H3.5" stroke="#141B34" stroke-width="1.5" stroke-linecap="round" stroke-linejoin="round"/>
<path d="M12.0586 8.26953V9.51172L13.5938 8.95508V10.1387L12.0586 10.6953V11.4805L13.5938 10.9238V12.0957L12.0586 12.6523V15.8223C12.6758 15.8145 13.1758 15.5938 13.5586 15.1602C13.9453 14.7227 14.1387 14.0117 14.1387 13.0273H15.6797C15.6797 13.9141 15.5254 14.6621 15.2168 15.2715C14.9082 15.877 14.4785 16.3359 13.9277 16.6484C13.3809 16.9609 12.7461 17.1172 12.0234 17.1172C11.7266 17.1172 11.4473 17.1094 11.1855 17.0938C10.9277 17.0781 10.7129 17.0586 10.541 17.0352V13.2031L9.46875 13.5957V12.418L10.541 12.0312V11.252L9.46875 11.6387V10.4609L10.541 10.0684V8.26953H12.0586Z" fill="black"/>
</svg>
